<?xml version="1.0" standalone="no"?><!DOCTYPE svg PUBLIC "-//W3C//DTD SVG 1.1//EN" "http://www.w3.org/Graphics/SVG/1.1/DTD/svg11.dtd"><svg t="1684922983340" class="icon" viewBox="0 0 1024 1024" version="1.1" xmlns="http://www.w3.org/2000/svg" p-id="2563" xmlns:xlink="http://www.w3.org/1999/xlink" width="200" height="200"><path d="M329.533 860.954c43.058 31.207 113.958 6.896 158.325-54.32 16.919-23.344 27.547-48.743 31.81-72.821-51.386-11.527-94.321-49.635-110.673-101.314-27.752 10.086-55.58 31.195-77.137 60.938-44.366 61.215-45.406 136.161-2.325 167.517zM628.477 343.548c0 10.571-0.604 5.285-1.812 14.346-20.538 14.497-40.019 46.059-56.479 62.821-12.383 12.383-21.746 24.162-28.693 35.639 10.42 3.323 20.387 7.702 29.599 12.987-20.236 12.534-44.7 19.179-71.127 20.84-0.906-0.301-1.812-0.755-2.718-1.207 9.363-6.041 19.33-11.175 30.051-15.101-8.306-12.232-19.934-25.22-35.488-38.358-16.913-14.497-36.395-43.793-56.932-56.025-1.812-11.025-2.718-8.004-2.718-20.84 0-92.269 46.512-205.227 109.333-236.788 51.194 43.792 86.984 140.743 86.984 221.686z" fill="#E27E47" p-id="2564"></path><path d="M749.741 552.549c-27.032 29.448-52.553 44.851-76.111 49.684 0.151-1.812 0.151-3.775 0.151-5.739 0-66.295-42.737-122.622-102.085-142.859 6.947-12.232 16.31-24.917 28.693-38.357 63.123-68.862 169.587-135.006 219.573-89.098 55.874 51.043-6.948 157.507-70.221 226.369z" fill="#E27E47" p-id="2565"></path><path d="M777.542 310.957c16.335-0.002 30.877 4.624 42.419 15.224 55.875 51.042-6.947 157.506-70.22 226.368-27.032 29.448-52.553 44.851-76.111 49.684 0.151-1.812 0.151-3.775 0.151-5.739 0-66.295-42.737-122.622-102.085-142.859 6.947-12.232 16.31-24.917 28.693-38.357 48.548-52.961 122.743-104.315 177.153-104.321m0.01-45.304h-0.005c-74.895 0.009-160.233 64.117-210.554 119.013-14.407 15.636-25.78 30.906-34.691 46.597l-27.028 47.59 51.801 17.663c42.708 14.562 71.402 54.74 71.402 99.979 0 0.779 0.016 1.559-0.018 2.305l-5.031 60.307 59.305-12.493c34.464-7.07 68.237-28.409 100.382-63.427C815.5 547.94 890.459 456.804 886.763 372.302c-1.385-31.659-13.919-59.173-36.246-79.57-19.258-17.687-44.52-27.079-72.965-27.079z" fill="#0F3944" p-id="2566"></path><path d="M249.839 323.639c31.493-0.001 69.593 14.439 106.059 35.765 27.182 15.705 53.458 35.337 75.506 55.573 15.554 14.195 27.182 28.088 35.488 41.377-55.724 22.048-95.138 76.564-95.138 140.14 0 3.02 0.151 6.04 0.302 9.06 0.151 2.114 0.301 4.229 0.453 6.342-24.313-3.171-51.495-16.611-81.546-44.247-70.373-64.482-143.462-167.624-91.061-224.556 12.561-13.616 29.915-19.454 49.937-19.454m0.003-45.304h-0.001c-33.913 0.001-62.697 11.773-83.239 34.042-20.81 22.61-31.068 51.546-29.699 83.717 3.774 88.674 95.448 179.296 123.455 204.959 35.214 32.383 70.997 51.165 106.294 55.768l55.004 7.173-3.957-55.328-0.233-3.271-0.185-2.594c-0.107-2.102-0.221-4.204-0.221-6.306 0-43.557 26.104-82.03 66.502-98.014l50.577-20.012-28.827-46.125c-10.862-17.379-25.452-34.48-43.366-50.83-25.292-23.212-54.157-44.452-83.382-61.337-32.528-19.023-81.467-41.842-128.722-41.842z" fill="#0F3944" p-id="2567"></path><path d="M371.755 596.494c0 3.02 0.151 6.04 0.302 9.06-2.266-1.963-4.681-4.078-7.098-6.342-70.372-64.483-143.462-167.625-91.06-224.556 18.877-20.538 48.626-23.407 82-15.252 27.182 15.705 53.458 35.337 75.506 55.573 15.554 14.195 27.182 28.088 35.488 41.377-55.724 22.048-95.138 76.564-95.138 140.14z" fill="#E27E47" p-id="2568"></path><path d="M406.972 556.222c-6.614 0-13.28-2.16-18.847-6.622l-226.52-181.215c-13.022-10.419-15.138-29.421-4.712-42.45 10.419-13.015 29.414-15.16 42.45-4.712l226.519 181.216c13.022 10.419 15.138 29.421 4.712 42.45-5.964 7.455-14.739 11.333-23.602 11.333zM515.217 143.456c8.045 0 17.103 4.286 27.029 12.832 37.77 32.31 68.759 111.417 71 179.477-10.672 10.577-20.127 22.56-28.818 33.573-6.139 7.779-11.936 15.127-16.074 19.343-14.751 14.751-26.336 29.214-35.415 44.214l-7.394 12.215c-2.808 0.247-6.28 0.371-10.328 0.371-0.87 0-1.738-0.006-2.599-0.017l-8.245-12.143c-11.174-16.457-25.889-32.445-43.485-47.306-4.264-3.654-10.541-10.774-16.611-17.659-8.225-9.33-17.137-19.438-27.19-28.402 0.703-45.175 14.545-97.752 36.481-138.145 19.25-35.448 43.449-58.353 61.649-58.353m0-45.304c-79.282 0-143.462 136.969-143.462 245.396 0 12.836 0.906 9.815 2.718 20.84 20.538 12.232 40.019 41.529 56.932 56.025 15.554 13.138 27.182 26.126 35.488 38.358-10.721 3.926-20.689 9.06-30.051 15.101 22.501 11.779 49.533 16.913 78.376 16.913 4.984 0 10.118-0.151 14.95-0.605 26.427-1.661 50.891-8.306 71.127-20.84-9.212-5.285-19.179-9.664-29.599-12.987 6.947-11.477 16.31-23.256 28.693-35.639 16.46-16.762 35.941-48.324 56.479-62.821 1.208-9.061 1.812-3.775 1.812-14.346 0-80.943-35.79-177.894-86.984-221.687-17.366-14.95-36.394-23.708-56.479-23.708z" fill="#0F3944" p-id="2569"></path><path d="M756.716 859.787c-42.585 31.851-113.841 8.607-159.124-51.934-17.268-23.087-28.277-48.324-32.9-72.335 51.207-12.298 93.565-51.047 109.138-102.966 27.9 9.668 56.043 30.356 78.044 59.772 45.281 60.541 47.447 135.463 4.842 167.463z" fill="#E27E47" p-id="2570"></path><path d="M673.83 632.552c27.9 9.668 56.043 30.357 78.044 59.772 45.282 60.54 47.448 135.462 4.842 167.462-12.944 9.681-28.541 14.273-45.248 14.273-38.259 0-82.357-24.068-113.876-66.207-17.268-23.087-28.277-48.324-32.9-72.335 51.207-12.297 93.565-51.046 109.138-102.965m-29.817-58.279l-13.577 45.263c-10.687 35.628-39.933 63.191-76.324 71.93l-42.092 10.109 8.185 42.508c6.097 31.666 20.312 63.1 41.108 90.904 38.928 52.045 96.463 84.377 150.154 84.377 26.975 0 52.004-8.056 72.382-23.298 63.578-47.753 65.436-149.141 4.302-230.876-26.672-35.661-62.005-62.455-99.489-75.444l-44.649-15.473z" fill="#0F3944" p-id="2571"></path><path d="M378.793 632.5c16.352 51.678 59.287 89.787 110.673 101.314-4.262 24.078-14.89 49.477-31.81 72.821-31.25 43.117-75.653 67.921-114.229 67.921-16.192 0-31.366-4.375-44.096-13.602-43.081-31.357-42.041-106.302 2.325-167.516 21.556-29.743 49.385-50.852 77.137-60.938m28.937-58.721l-44.413 16.142c-37.285 13.552-72.211 40.873-98.344 76.931-59.898 82.643-56.517 183.993 7.697 230.731 20.134 14.592 44.575 22.277 70.756 22.277 54.353 0 112.179-33.198 150.912-86.638 20.375-28.112 34.116-59.756 39.738-91.511l7.546-42.627-42.241-9.476c-36.518-8.191-66.175-35.311-77.396-70.775l-14.255-45.054zM643.593 536.092c-8.576 0-17.1-3.635-23.072-10.692-10.773-12.734-9.188-31.795 3.547-42.568l196.317-166.114c12.742-10.78 31.788-9.188 42.568 3.547 10.773 12.734 9.188 31.795-3.547 42.568L663.089 528.947a30.09 30.09 0 0 1-19.496 7.145z" fill="#0F3944" p-id="2572"></path></svg>